<svg xmlns="http://www.w3.org/2000/svg" viewBox="0 0 27.29 37.72"><defs><style>.cls-1{fill:#fff;}</style></defs><title>Asset 3</title><g id="Layer_2" data-name="Layer 2"><g id="Layer_1-2" data-name="Layer 1"><path class="cls-1" d="M24.39,15.66a3.21,3.21,0,0,0-2.48.82,2.61,2.61,0,0,0-.23.24,3.18,3.18,0,0,0-5-.89,1.81,1.81,0,0,0-.24.24,3.23,3.23,0,0,0-2.1-1.65,8.42,8.42,0,1,0-9.15,1.81v3.62L2.87,21.53A3.85,3.85,0,0,0,1.44,25.9l2.32,7a7.11,7.11,0,0,0,6.76,4.87h9.65a7.13,7.13,0,0,0,7.12-7.13V19A3.29,3.29,0,0,0,24.39,15.66ZM6.27,6.05A3.24,3.24,0,0,0,5.21,8.43v3.29a4.61,4.61,0,1,1,6.44,0V8.55a3.3,3.3,0,0,0-2.9-3.32A3.21,3.21,0,0,0,6.27,6.05Zm-5,2.38a7.21,7.21,0,1,1,10.43,6.46v-1.6a5.82,5.82,0,1,0-6.44,0v1.6A7.26,7.26,0,0,1,1.22,8.43ZM26.07,30.59a5.91,5.91,0,0,1-5.9,5.91H10.52a5.9,5.9,0,0,1-5.6-4L2.6,25.52a2.64,2.64,0,0,1,1-3l1.63-1.17v5.33a.62.62,0,1,0,1.23,0V8.43A2,2,0,0,1,7.09,7a1.94,1.94,0,0,1,1.54-.51,2.06,2.06,0,0,1,1.8,2.09V21.47a.61.61,0,1,0,1.22,0V17.56a2,2,0,0,1,2.2-2,2.08,2.08,0,0,1,1.79,2.1v4.45a.62.62,0,0,0,1.23,0V18.21a2,2,0,0,1,.65-1.48,2,2,0,0,1,1.54-.51,2.08,2.08,0,0,1,1.8,2.1v4.45a.61.61,0,0,0,1.22,0V18.86a2,2,0,0,1,.65-1.48,2,2,0,0,1,1.54-.5A2.06,2.06,0,0,1,26.07,19V30.59Z"/></g></g></svg>