<svg xmlns="http://www.w3.org/2000/svg" viewBox="0 0 826.92 74.31"><defs><style>.cls-1{fill:#cc81ae;}.cls-2{fill:#fbc540;}.cls-3{fill:#68bbbf;}.cls-4{fill:#005780;}</style></defs><title>Asset 2</title><g id="Layer_2" data-name="Layer 2"><g id="Layer_1-2" data-name="Layer 1"><path class="cls-1" d="M791.77,0H43.15a30.16,30.16,0,0,0,0,60.31H791.77a30.16,30.16,0,0,0,0-60.31Z"/><path class="cls-2" d="M692.7,10.31H26a26,26,0,0,0,0,52H692.7a26,26,0,0,0,0-52Z"/><path class="cls-3" d="M780.77,14H32.15a30.16,30.16,0,0,0,0,60.31H780.77a30.16,30.16,0,0,0,0-60.31Z"/><path class="cls-4" d="M796.77,8H48.15a30.16,30.16,0,0,0,0,60.31H796.77a30.16,30.16,0,0,0,0-60.31Z"/></g></g></svg>