<?xml version="1.0" encoding="UTF-8" standalone="no"?>
<!DOCTYPE svg PUBLIC "-//W3C//DTD SVG 1.1//EN" "http://www.w3.org/Graphics/SVG/1.1/DTD/svg11.dtd">
<svg width="100%" height="100%" viewBox="0 0 512 512" version="1.1" xmlns="http://www.w3.org/2000/svg" xmlns:xlink="http://www.w3.org/1999/xlink" xml:space="preserve" style="fill-rule:evenodd;clip-rule:evenodd;stroke-linejoin:round;stroke-miterlimit:1.41421;">
    <path d="M256,0C114.609,0 0,114.609 0,256C0,397.391 114.609,512 256,512C397.391,512 512,397.391 512,256C512,114.609 397.391,0 256,0ZM256,472C136.703,472 40,375.297 40,256C40,136.703 136.703,40 256,40C375.297,40 472,136.703 472,256C472,375.297 375.297,472 256,472Z" style="fill:rgb(0,87,128);fill-rule:nonzero;"/>
    <rect x="151.5" y="184.5" width="192" height="32" style="fill:rgb(0,87,128);"/>
    <rect x="151.5" y="248.5" width="192" height="32" style="fill:rgb(0,87,128);"/>
    <rect x="151.5" y="312.5" width="192" height="32" style="fill:rgb(0,87,128);"/>
</svg>
