<?xml version="1.0" encoding="UTF-8" standalone="no"?>
<!DOCTYPE svg PUBLIC "-//W3C//DTD SVG 1.1//EN" "http://www.w3.org/Graphics/SVG/1.1/DTD/svg11.dtd">
<svg width="100%" height="100%" viewBox="0 0 351 162" version="1.1" xmlns="http://www.w3.org/2000/svg" xmlns:xlink="http://www.w3.org/1999/xlink" xml:space="preserve" style="fill-rule:evenodd;clip-rule:evenodd;stroke-linejoin:round;stroke-miterlimit:1.41421;">
    <g transform="matrix(1,0,0,1,-207.902,-22.3634)">
        <g transform="matrix(2,0,0,2,0,0)">
            <path d="M240.695,13.888L240.695,53.285L268.132,36.833L264.885,34.939L243.888,47.17L243.888,16.053L240.695,13.888Z" style="fill:rgb(100,187,192);fill-rule:nonzero;"/>
        </g>
        <g transform="matrix(2,0,0,2,0,0)">
            <path d="M245.891,43.598L245.891,11.182L279.119,30.881L275.871,32.775L249.084,17.298L249.084,41.433L245.891,43.598Z" style="fill:rgb(252,198,46);fill-rule:nonzero;"/>
        </g>
        <g transform="matrix(2,0,0,2,0,0)">
            <path d="M251.465,20.706L251.465,24.548L272.57,36.725L246.378,52.039L246.378,55.828L279.389,36.832L251.465,20.706Z" style="fill:rgb(205,128,175);fill-rule:nonzero;"/>
        </g>
        <g transform="matrix(2,0,0,2,0,0)">
            <path d="M104.103,74.885L104.776,74.482C105.249,75.353 105.796,75.789 106.416,75.789C106.682,75.789 106.931,75.727 107.165,75.604C107.398,75.48 107.576,75.314 107.697,75.106C107.819,74.898 107.88,74.677 107.88,74.444C107.88,74.179 107.791,73.918 107.611,73.664C107.364,73.312 106.912,72.889 106.255,72.394C105.595,71.895 105.184,71.535 105.023,71.312C104.743,70.939 104.603,70.535 104.603,70.102C104.603,69.757 104.686,69.443 104.851,69.16C105.016,68.876 105.248,68.653 105.547,68.49C105.847,68.326 106.172,68.245 106.524,68.245C106.897,68.245 107.246,68.338 107.571,68.522C107.895,68.707 108.239,69.047 108.601,69.542L107.956,70.031C107.658,69.637 107.404,69.377 107.194,69.251C106.984,69.126 106.755,69.063 106.508,69.063C106.189,69.063 105.927,69.16 105.725,69.353C105.522,69.548 105.421,69.786 105.421,70.07C105.421,70.241 105.457,70.408 105.529,70.57C105.6,70.731 105.731,70.907 105.921,71.097C106.026,71.197 106.367,71.461 106.944,71.888C107.629,72.394 108.099,72.844 108.354,73.239C108.609,73.633 108.736,74.03 108.736,74.427C108.736,75.002 108.518,75.5 108.082,75.924C107.646,76.347 107.116,76.559 106.492,76.559C106.011,76.559 105.576,76.43 105.184,76.174C104.793,75.918 104.433,75.488 104.103,74.885" style="fill:rgb(0,87,128);fill-rule:nonzero;"/>
        </g>
        <g transform="matrix(2,0,0,2,0,0)">
            <path d="M110.279,70.505L111.033,70.505L111.033,71.516C111.295,71.144 111.564,70.871 111.841,70.698C112.221,70.469 112.622,70.354 113.043,70.354C113.326,70.354 113.595,70.41 113.85,70.521C114.105,70.632 114.313,70.78 114.475,70.965C114.636,71.15 114.777,71.414 114.895,71.758C115.146,71.3 115.459,70.951 115.835,70.712C116.211,70.474 116.615,70.354 117.048,70.354C117.452,70.354 117.809,70.456 118.119,70.661C118.428,70.865 118.658,71.151 118.808,71.516C118.959,71.882 119.034,72.432 119.034,73.163L119.034,76.359L118.264,76.359L118.264,73.163C118.264,72.536 118.219,72.104 118.131,71.869C118.042,71.634 117.888,71.444 117.672,71.301C117.456,71.158 117.197,71.086 116.897,71.086C116.532,71.086 116.199,71.194 115.897,71.409C115.594,71.624 115.374,71.911 115.234,72.27C115.095,72.629 115.025,73.228 115.025,74.067L115.025,76.359L114.272,76.359L114.272,73.362C114.272,72.655 114.228,72.176 114.14,71.922C114.052,71.67 113.899,71.467 113.68,71.315C113.462,71.163 113.201,71.086 112.9,71.086C112.551,71.086 112.226,71.191 111.924,71.401C111.62,71.611 111.396,71.893 111.251,72.249C111.105,72.604 111.033,73.147 111.033,73.879L111.033,76.359L110.279,76.359L110.279,70.505Z" style="fill:rgb(0,87,128);fill-rule:nonzero;"/>
        </g>
        <g transform="matrix(2,0,0,2,0,0)">
            <path d="M123.444,71.081C123.024,71.081 122.637,71.184 122.283,71.39C121.927,71.596 121.646,71.886 121.436,72.258C121.226,72.631 121.122,73.025 121.122,73.44C121.122,73.852 121.227,74.247 121.439,74.623C121.65,74.999 121.934,75.292 122.291,75.502C122.647,75.711 123.03,75.816 123.438,75.816C123.85,75.816 124.241,75.712 124.61,75.505C124.979,75.297 125.263,75.016 125.462,74.661C125.661,74.306 125.76,73.907 125.76,73.462C125.76,72.785 125.537,72.219 125.091,71.764C124.645,71.309 124.095,71.081 123.444,71.081M126.455,70.505L126.455,76.36L125.712,76.36L125.712,75.353C125.396,75.737 125.042,76.026 124.649,76.22C124.256,76.414 123.827,76.51 123.36,76.51C122.532,76.51 121.824,76.21 121.238,75.609C120.651,75.008 120.358,74.277 120.358,73.416C120.358,72.573 120.654,71.852 121.246,71.253C121.838,70.654 122.549,70.354 123.382,70.354C123.862,70.354 124.298,70.456 124.686,70.661C125.076,70.866 125.418,71.172 125.712,71.581L125.712,70.505L126.455,70.505Z" style="fill:rgb(0,87,128);fill-rule:nonzero;"/>
        </g>
        <g transform="matrix(2,0,0,2,0,0)">
            <path d="M127.864,70.505L128.634,70.505L128.634,71.36C128.863,71.024 129.105,70.771 129.36,70.605C129.615,70.438 129.881,70.354 130.157,70.354C130.365,70.354 130.587,70.421 130.824,70.553L130.431,71.189C130.273,71.12 130.14,71.086 130.033,71.086C129.782,71.086 129.54,71.19 129.306,71.396C129.073,71.602 128.895,71.922 128.773,72.356C128.68,72.69 128.634,73.364 128.634,74.38L128.634,76.359L127.864,76.359L127.864,70.505Z" style="fill:rgb(0,87,128);fill-rule:nonzero;"/>
        </g>
        <g transform="matrix(2,0,0,2,0,0)">
            <path d="M132.121,68.331L132.874,68.331L132.874,70.505L134.068,70.505L134.068,71.157L132.874,71.157L132.874,76.36L132.121,76.36L132.121,71.157L131.093,71.157L131.093,70.505L132.121,70.505L132.121,68.331Z" style="fill:rgb(0,87,128);fill-rule:nonzero;"/>
        </g>
        <g transform="matrix(2,0,0,2,0,0)">
            <path d="M137.459,70.505L138.233,70.505L140.028,74.756L141.896,70.505L142.032,70.505L143.913,74.756L145.742,70.505L146.525,70.505L143.982,76.359L143.843,76.359L141.971,72.168L140.1,76.359L139.959,76.359L137.459,70.505Z" style="fill:rgb(0,87,128);fill-rule:nonzero;"/>
        </g>
        <g transform="matrix(2,0,0,2,0,0)">
            <path d="M152.337,72.841C152.236,72.439 152.09,72.118 151.898,71.878C151.705,71.637 151.451,71.444 151.136,71.297C150.819,71.15 150.487,71.076 150.139,71.076C149.565,71.076 149.07,71.261 148.657,71.63C148.356,71.899 148.127,72.302 147.973,72.841L152.337,72.841ZM152.337,74.418L152.972,74.751C152.764,75.16 152.523,75.49 152.25,75.741C151.978,75.992 151.67,76.183 151.329,76.314C150.988,76.445 150.602,76.51 150.171,76.51C149.216,76.51 148.469,76.198 147.931,75.572C147.392,74.945 147.123,74.238 147.123,73.449C147.123,72.707 147.351,72.045 147.807,71.464C148.385,70.724 149.158,70.355 150.128,70.355C151.126,70.355 151.923,70.733 152.52,71.49C152.943,72.025 153.158,72.692 153.166,73.492L147.898,73.492C147.912,74.172 148.129,74.729 148.55,75.164C148.97,75.599 149.488,75.817 150.107,75.817C150.404,75.817 150.694,75.765 150.977,75.661C151.259,75.557 151.498,75.42 151.695,75.248C151.894,75.077 152.107,74.799 152.337,74.418" style="fill:rgb(0,87,128);fill-rule:nonzero;"/>
        </g>
        <g transform="matrix(2,0,0,2,0,0)">
            <rect x="154.457" y="68.246" width="0.753" height="8.114" style="fill:rgb(0,87,128);fill-rule:nonzero;"/>
        </g>
        <g transform="matrix(2,0,0,2,0,0)">
            <rect x="156.663" y="68.246" width="0.754" height="8.114" style="fill:rgb(0,87,128);fill-rule:nonzero;"/>
        </g>
        <g transform="matrix(2,0,0,2,0,0)">
            <path d="M162.044,75.784C162.463,75.784 162.85,75.681 163.204,75.474C163.558,75.268 163.84,74.978 164.049,74.605C164.259,74.232 164.363,73.838 164.363,73.422C164.363,73.006 164.258,72.609 164.047,72.232C163.835,71.856 163.552,71.562 163.195,71.353C162.839,71.143 162.459,71.038 162.055,71.038C161.644,71.038 161.252,71.143 160.882,71.353C160.512,71.562 160.227,71.845 160.028,72.2C159.829,72.555 159.731,72.955 159.731,73.4C159.731,74.078 159.953,74.645 160.398,75.101C160.844,75.556 161.393,75.784 162.044,75.784M159.031,76.36L159.031,68.245L159.784,68.245L159.784,71.511C160.1,71.124 160.452,70.834 160.843,70.642C161.233,70.451 161.662,70.354 162.128,70.354C162.956,70.354 163.662,70.655 164.248,71.256C164.834,71.857 165.127,72.586 165.127,73.443C165.127,74.29 164.832,75.013 164.24,75.612C163.649,76.211 162.938,76.51 162.106,76.51C161.63,76.51 161.197,76.408 160.811,76.203C160.424,75.999 160.082,75.692 159.784,75.284L159.784,76.36L159.031,76.36Z" style="fill:rgb(0,87,128);fill-rule:nonzero;"/>
        </g>
        <g transform="matrix(2,0,0,2,0,0)">
            <path d="M171.429,72.841C171.328,72.439 171.182,72.118 170.99,71.878C170.797,71.637 170.543,71.444 170.227,71.297C169.91,71.15 169.578,71.076 169.231,71.076C168.656,71.076 168.162,71.261 167.749,71.63C167.447,71.899 167.219,72.302 167.065,72.841L171.429,72.841ZM171.429,74.418L172.064,74.751C171.856,75.16 171.615,75.49 171.342,75.741C171.069,75.992 170.762,76.183 170.421,76.314C170.079,76.445 169.694,76.51 169.263,76.51C168.308,76.51 167.561,76.198 167.023,75.572C166.484,74.945 166.214,74.238 166.214,73.449C166.214,72.707 166.443,72.045 166.899,71.464C167.477,70.724 168.25,70.355 169.22,70.355C170.218,70.355 171.015,70.733 171.611,71.49C172.034,72.025 172.25,72.692 172.257,73.492L166.99,73.492C167.003,74.172 167.221,74.729 167.641,75.164C168.061,75.599 168.58,75.817 169.199,75.817C169.496,75.817 169.786,75.765 170.069,75.661C170.35,75.557 170.59,75.42 170.787,75.248C170.985,75.077 171.199,74.799 171.429,74.418" style="fill:rgb(0,87,128);fill-rule:nonzero;"/>
        </g>
        <g transform="matrix(2,0,0,2,0,0)">
            <path d="M173.549,70.505L174.302,70.505L174.302,76.359L173.549,76.359L173.549,70.505ZM173.923,68.095C174.094,68.095 174.24,68.155 174.361,68.278C174.483,68.399 174.544,68.547 174.544,68.719C174.544,68.888 174.483,69.033 174.361,69.155C174.24,69.277 174.094,69.338 173.923,69.338C173.755,69.338 173.609,69.277 173.488,69.155C173.367,69.033 173.307,68.888 173.307,68.719C173.307,68.547 173.367,68.399 173.488,68.278C173.609,68.155 173.755,68.095 173.923,68.095" style="fill:rgb(0,87,128);fill-rule:nonzero;"/>
        </g>
        <g transform="matrix(2,0,0,2,0,0)">
            <path d="M175.867,70.505L176.621,70.505L176.621,71.554C176.923,71.152 177.256,70.852 177.622,70.653C177.987,70.454 178.386,70.354 178.816,70.354C179.254,70.354 179.642,70.465 179.981,70.688C180.32,70.91 180.571,71.21 180.732,71.587C180.893,71.963 180.974,72.549 180.974,73.346L180.974,76.359L180.221,76.359L180.221,73.567C180.221,72.892 180.193,72.442 180.137,72.216C180.05,71.829 179.883,71.537 179.635,71.341C179.388,71.146 179.064,71.048 178.666,71.048C178.21,71.048 177.802,71.199 177.441,71.501C177.081,71.802 176.844,72.175 176.728,72.62C176.657,72.91 176.621,73.441 176.621,74.213L176.621,76.359L175.867,76.359L175.867,70.505Z" style="fill:rgb(0,87,128);fill-rule:nonzero;"/>
        </g>
        <g transform="matrix(2,0,0,2,0,0)">
            <path d="M185.413,71.081C184.986,71.081 184.59,71.184 184.225,71.391C183.858,71.597 183.571,71.882 183.363,72.246C183.155,72.61 183.051,73.004 183.051,73.427C183.051,74.069 183.267,74.6 183.696,75.02C184.127,75.44 184.684,75.65 185.37,75.65C186.062,75.65 186.619,75.442 187.041,75.025C187.462,74.609 187.673,74.062 187.673,73.384C187.673,72.943 187.576,72.549 187.383,72.203C187.188,71.857 186.914,71.583 186.559,71.382C186.204,71.182 185.822,71.081 185.413,71.081M187.636,70.505L188.389,70.505L188.389,75.171C188.389,75.992 188.317,76.593 188.174,76.973C187.976,77.511 187.634,77.926 187.145,78.216C186.658,78.507 186.071,78.652 185.387,78.652C184.885,78.652 184.434,78.581 184.033,78.439C183.633,78.296 183.308,78.106 183.057,77.867C182.805,77.627 182.574,77.278 182.362,76.817L183.18,76.817C183.403,77.205 183.69,77.492 184.042,77.678C184.394,77.865 184.83,77.958 185.351,77.958C185.865,77.958 186.299,77.862 186.652,77.671C187.007,77.479 187.259,77.239 187.409,76.95C187.559,76.66 187.636,76.193 187.636,75.547L187.636,75.246C187.351,75.605 187.006,75.88 186.596,76.072C186.186,76.264 185.752,76.36 185.293,76.36C184.754,76.36 184.247,76.226 183.773,75.959C183.3,75.691 182.934,75.332 182.675,74.88C182.416,74.428 182.287,73.931 182.287,73.39C182.287,72.848 182.421,72.343 182.691,71.875C182.96,71.407 183.333,71.036 183.809,70.764C184.284,70.491 184.786,70.354 185.314,70.354C185.752,70.354 186.16,70.445 186.539,70.626C186.918,70.808 187.283,71.106 187.636,71.522L187.636,70.505Z" style="fill:rgb(0,87,128);fill-rule:nonzero;"/>
        </g>
        <g transform="matrix(2,0,0,2,0,0)">
            <path d="M192.941,70.505L193.694,70.505L193.694,76.359L192.941,76.359L192.941,70.505ZM193.315,68.095C193.486,68.095 193.633,68.155 193.754,68.278C193.875,68.399 193.937,68.547 193.937,68.719C193.937,68.888 193.875,69.033 193.754,69.155C193.633,69.277 193.486,69.338 193.315,69.338C193.148,69.338 193.002,69.277 192.881,69.155C192.76,69.033 192.699,68.888 192.699,68.719C192.699,68.547 192.76,68.399 192.881,68.278C193.002,68.155 193.148,68.095 193.315,68.095" style="fill:rgb(0,87,128);fill-rule:nonzero;"/>
        </g>
        <g transform="matrix(2,0,0,2,0,0)">
            <path d="M195.261,70.505L196.014,70.505L196.014,71.554C196.315,71.152 196.649,70.852 197.015,70.653C197.381,70.454 197.779,70.354 198.209,70.354C198.647,70.354 199.035,70.465 199.374,70.688C199.713,70.91 199.964,71.21 200.125,71.587C200.286,71.963 200.367,72.549 200.367,73.346L200.367,76.359L199.614,76.359L199.614,73.567C199.614,72.892 199.586,72.442 199.53,72.216C199.443,71.829 199.276,71.537 199.028,71.341C198.78,71.146 198.457,71.048 198.059,71.048C197.604,71.048 197.195,71.199 196.834,71.501C196.474,71.802 196.236,72.175 196.121,72.62C196.05,72.91 196.014,73.441 196.014,74.213L196.014,76.359L195.261,76.359L195.261,70.505Z" style="fill:rgb(0,87,128);fill-rule:nonzero;"/>
        </g>
        <g transform="matrix(2,0,0,2,0,0)">
            <path d="M204.925,71.145L204.441,71.646C204.037,71.255 203.644,71.059 203.259,71.059C203.014,71.059 202.805,71.14 202.63,71.301C202.456,71.463 202.368,71.651 202.368,71.866C202.368,72.057 202.441,72.237 202.584,72.41C202.728,72.585 203.029,72.791 203.49,73.028C204.051,73.319 204.432,73.599 204.633,73.868C204.83,74.141 204.93,74.447 204.93,74.788C204.93,75.269 204.761,75.676 204.423,76.009C204.085,76.343 203.663,76.51 203.156,76.51C202.819,76.51 202.496,76.437 202.19,76.29C201.882,76.142 201.628,75.939 201.427,75.682L201.901,75.143C202.285,75.578 202.694,75.794 203.124,75.794C203.427,75.794 203.684,75.697 203.896,75.504C204.109,75.31 204.214,75.082 204.214,74.82C204.214,74.605 204.144,74.414 204.004,74.245C203.863,74.08 203.547,73.872 203.055,73.621C202.527,73.348 202.166,73.079 201.977,72.813C201.785,72.548 201.691,72.245 201.691,71.904C201.691,71.459 201.842,71.09 202.146,70.795C202.449,70.501 202.833,70.354 203.297,70.354C203.835,70.354 204.378,70.618 204.925,71.145" style="fill:rgb(0,87,128);fill-rule:nonzero;"/>
        </g>
        <g transform="matrix(2,0,0,2,0,0)">
            <path d="M209.282,71.081C208.631,71.081 208.083,71.309 207.636,71.764C207.191,72.219 206.969,72.785 206.969,73.462C206.969,73.907 207.068,74.306 207.266,74.661C207.466,75.016 207.75,75.297 208.12,75.505C208.491,75.712 208.882,75.816 209.294,75.816C209.698,75.816 210.078,75.711 210.434,75.502C210.79,75.292 211.074,74.999 211.285,74.623C211.496,74.247 211.602,73.852 211.602,73.44C211.602,73.025 211.497,72.631 211.288,72.258C211.078,71.886 210.797,71.596 210.442,71.39C210.088,71.184 209.701,71.081 209.282,71.081M206.269,70.505L207.022,70.505L207.022,71.581C207.32,71.172 207.663,70.866 208.05,70.661C208.436,70.456 208.868,70.354 209.345,70.354C210.176,70.354 210.887,70.654 211.478,71.253C212.07,71.852 212.366,72.573 212.366,73.416C212.366,74.277 212.073,75.008 211.487,75.609C210.901,76.21 210.194,76.51 209.366,76.51C208.9,76.51 208.472,76.414 208.082,76.22C207.691,76.026 207.338,75.737 207.022,75.353L207.022,78.501L206.269,78.501L206.269,70.505Z" style="fill:rgb(0,87,128);fill-rule:nonzero;"/>
        </g>
        <g transform="matrix(2,0,0,2,0,0)">
            <path d="M213.663,70.505L214.416,70.505L214.416,76.359L213.663,76.359L213.663,70.505ZM214.037,68.095C214.208,68.095 214.355,68.155 214.477,68.278C214.598,68.399 214.658,68.547 214.658,68.719C214.658,68.888 214.598,69.033 214.477,69.155C214.355,69.277 214.208,69.338 214.037,69.338C213.869,69.338 213.725,69.277 213.603,69.155C213.482,69.033 213.421,68.888 213.421,68.719C213.421,68.547 213.482,68.399 213.603,68.278C213.725,68.155 213.869,68.095 214.037,68.095" style="fill:rgb(0,87,128);fill-rule:nonzero;"/>
        </g>
        <g transform="matrix(2,0,0,2,0,0)">
            <path d="M215.697,70.505L216.467,70.505L216.467,71.36C216.696,71.024 216.938,70.771 217.193,70.605C217.448,70.438 217.713,70.354 217.989,70.354C218.197,70.354 218.42,70.421 218.657,70.553L218.263,71.189C218.106,71.12 217.973,71.086 217.866,71.086C217.614,71.086 217.372,71.19 217.139,71.396C216.906,71.602 216.728,71.922 216.606,72.356C216.512,72.69 216.467,73.364 216.467,74.38L216.467,76.359L215.697,76.359L215.697,70.505Z" style="fill:rgb(0,87,128);fill-rule:nonzero;"/>
        </g>
        <g transform="matrix(2,0,0,2,0,0)">
            <path d="M224.183,72.841C224.082,72.439 223.936,72.118 223.744,71.878C223.552,71.637 223.297,71.444 222.981,71.297C222.665,71.15 222.333,71.076 221.985,71.076C221.41,71.076 220.916,71.261 220.503,71.63C220.202,71.899 219.973,72.302 219.819,72.841L224.183,72.841ZM224.183,74.418L224.818,74.751C224.61,75.16 224.37,75.49 224.096,75.741C223.824,75.992 223.516,76.183 223.175,76.314C222.834,76.445 222.448,76.51 222.017,76.51C221.062,76.51 220.315,76.198 219.777,75.572C219.239,74.945 218.968,74.238 218.968,73.449C218.968,72.707 219.197,72.045 219.653,71.464C220.231,70.724 221.004,70.355 221.974,70.355C222.972,70.355 223.769,70.733 224.366,71.49C224.788,72.025 225.004,72.692 225.011,73.492L219.744,73.492C219.757,74.172 219.975,74.729 220.396,75.164C220.816,75.599 221.334,75.817 221.953,75.817C222.25,75.817 222.54,75.765 222.823,75.661C223.105,75.557 223.344,75.42 223.541,75.248C223.74,75.077 223.954,74.799 224.183,74.418" style="fill:rgb(0,87,128);fill-rule:nonzero;"/>
        </g>
        <g transform="matrix(2,0,0,2,0,0)">
            <path d="M229.249,71.081C228.829,71.081 228.442,71.184 228.088,71.39C227.732,71.596 227.451,71.886 227.241,72.258C227.031,72.631 226.927,73.025 226.927,73.44C226.927,73.852 227.032,74.247 227.244,74.623C227.455,74.999 227.739,75.292 228.096,75.502C228.452,75.711 228.835,75.816 229.243,75.816C229.655,75.816 230.046,75.712 230.415,75.505C230.784,75.297 231.068,75.016 231.267,74.661C231.466,74.306 231.565,73.907 231.565,73.462C231.565,72.785 231.342,72.219 230.895,71.764C230.45,71.309 229.9,71.081 229.249,71.081M232.259,68.246L232.259,76.36L231.517,76.36L231.517,75.353C231.201,75.737 230.847,76.026 230.454,76.22C230.061,76.414 229.632,76.51 229.165,76.51C228.337,76.51 227.629,76.21 227.043,75.609C226.456,75.008 226.162,74.277 226.162,73.416C226.162,72.573 226.459,71.852 227.051,71.253C227.643,70.654 228.354,70.354 229.187,70.354C229.667,70.354 230.103,70.456 230.491,70.661C230.881,70.866 231.223,71.172 231.517,71.581L231.517,68.246L232.259,68.246Z" style="fill:rgb(0,87,128);fill-rule:nonzero;"/>
        </g>
        <g transform="matrix(2,0,0,2,0,0)">
            <path d="M107.371,89.282C107.789,89.282 108.176,89.179 108.53,88.972C108.885,88.766 109.166,88.477 109.376,88.104C109.585,87.731 109.689,87.336 109.689,86.92C109.689,86.504 109.584,86.107 109.373,85.731C109.162,85.354 108.879,85.061 108.522,84.851C108.166,84.641 107.786,84.536 107.382,84.536C106.97,84.536 106.579,84.641 106.209,84.851C105.838,85.061 105.554,85.343 105.355,85.699C105.156,86.054 105.057,86.454 105.057,86.898C105.057,87.576 105.279,88.143 105.725,88.599C106.171,89.054 106.72,89.282 107.371,89.282M104.357,89.858L104.357,81.744L105.11,81.744L105.11,85.01C105.426,84.622 105.779,84.333 106.17,84.141C106.56,83.949 106.988,83.853 107.454,83.853C108.282,83.853 108.989,84.153 109.575,84.754C110.161,85.355 110.454,86.084 110.454,86.942C110.454,87.788 110.158,88.511 109.566,89.11C108.975,89.709 108.265,90.009 107.433,90.009C106.956,90.009 106.524,89.907 106.138,89.702C105.75,89.497 105.408,89.191 105.11,88.782L105.11,89.858L104.357,89.858Z" style="fill:rgb(0,87,128);fill-rule:nonzero;"/>
        </g>
        <g transform="matrix(2,0,0,2,0,0)">
            <path d="M111.196,84.004L111.993,84.004L114.005,88.512L115.959,84.004L116.76,84.004L113.267,92L112.472,92L113.599,89.415L111.196,84.004Z" style="fill:rgb(0,87,128);fill-rule:nonzero;"/>
        </g>
        <g transform="matrix(2,0,0,2,0,0)">
            <path d="M121.442,81.83L122.195,81.83L122.195,84.004L123.389,84.004L123.389,84.656L122.195,84.656L122.195,89.859L121.442,89.859L121.442,84.656L120.414,84.656L120.414,84.004L121.442,84.004L121.442,81.83Z" style="fill:rgb(0,87,128);fill-rule:nonzero;"/>
        </g>
        <g transform="matrix(2,0,0,2,0,0)">
            <path d="M124.52,81.744L125.274,81.744L125.274,85.053C125.579,84.651 125.914,84.35 126.28,84.151C126.646,83.952 127.042,83.853 127.469,83.853C127.907,83.853 128.294,83.964 128.634,84.186C128.973,84.409 129.223,84.708 129.384,85.082C129.546,85.457 129.626,86.045 129.626,86.845L129.626,89.858L128.874,89.858L128.874,87.065C128.874,86.391 128.846,85.941 128.792,85.715C128.7,85.327 128.53,85.036 128.284,84.84C128.039,84.645 127.716,84.547 127.318,84.547C126.863,84.547 126.455,84.698 126.094,84.999C125.734,85.301 125.496,85.674 125.381,86.119C125.309,86.405 125.274,86.936 125.274,87.711L125.274,89.858L124.52,89.858L124.52,81.744Z" style="fill:rgb(0,87,128);fill-rule:nonzero;"/>
        </g>
        <g transform="matrix(2,0,0,2,0,0)">
            <path d="M136.169,86.339C136.068,85.938 135.923,85.616 135.731,85.376C135.538,85.136 135.284,84.942 134.968,84.795C134.651,84.648 134.319,84.574 133.972,84.574C133.397,84.574 132.902,84.759 132.489,85.129C132.188,85.398 131.96,85.801 131.806,86.339L136.169,86.339ZM136.169,87.916L136.805,88.25C136.596,88.658 136.356,88.988 136.083,89.24C135.81,89.49 135.503,89.682 135.162,89.813C134.82,89.943 134.435,90.009 134.004,90.009C133.049,90.009 132.302,89.696 131.764,89.07C131.225,88.444 130.955,87.736 130.955,86.947C130.955,86.205 131.184,85.543 131.64,84.962C132.217,84.223 132.991,83.853 133.961,83.853C134.959,83.853 135.756,84.232 136.352,84.989C136.775,85.523 136.991,86.191 136.998,86.99L131.731,86.99C131.744,87.67 131.962,88.228 132.382,88.662C132.802,89.097 133.321,89.315 133.94,89.315C134.237,89.315 134.527,89.263 134.81,89.159C135.091,89.056 135.331,88.918 135.528,88.747C135.726,88.575 135.94,88.298 136.169,87.916" style="fill:rgb(0,87,128);fill-rule:nonzero;"/>
        </g>
        <g transform="matrix(2,0,0,2,0,0)">
            <path d="M147.136,85.22L146.538,85.591C146.023,84.906 145.319,84.564 144.426,84.564C143.713,84.564 143.121,84.793 142.651,85.252C142.179,85.71 141.944,86.267 141.944,86.923C141.944,87.35 142.052,87.751 142.269,88.127C142.486,88.503 142.782,88.796 143.16,89.004C143.538,89.211 143.962,89.315 144.432,89.315C145.291,89.315 145.994,88.972 146.538,88.287L147.136,88.68C146.856,89.101 146.481,89.428 146.009,89.66C145.537,89.893 145,90.009 144.397,90.009C143.472,90.009 142.704,89.715 142.094,89.127C141.485,88.538 141.179,87.823 141.179,86.98C141.179,86.413 141.322,85.887 141.607,85.401C141.892,84.914 142.284,84.535 142.782,84.262C143.282,83.99 143.839,83.853 144.456,83.853C144.844,83.853 145.218,83.912 145.578,84.031C145.939,84.149 146.244,84.303 146.495,84.493C146.746,84.684 146.96,84.926 147.136,85.22" style="fill:rgb(0,87,128);fill-rule:nonzero;"/>
        </g>
        <g transform="matrix(2,0,0,2,0,0)">
            <path d="M151.352,84.59C150.726,84.59 150.187,84.822 149.738,85.284C149.288,85.748 149.063,86.307 149.063,86.964C149.063,87.387 149.165,87.781 149.371,88.148C149.576,88.513 149.853,88.796 150.202,88.995C150.551,89.194 150.935,89.293 151.352,89.293C151.77,89.293 152.153,89.194 152.502,88.995C152.852,88.796 153.128,88.513 153.334,88.148C153.54,87.781 153.642,87.387 153.642,86.964C153.642,86.307 153.415,85.748 152.964,85.284C152.512,84.822 151.975,84.59 151.352,84.59M151.355,83.853C152.257,83.853 153.004,84.179 153.597,84.832C154.136,85.428 154.406,86.133 154.406,86.947C154.406,87.765 154.122,88.48 153.551,89.091C152.982,89.703 152.249,90.009 151.355,90.009C150.456,90.009 149.722,89.703 149.153,89.091C148.583,88.48 148.298,87.765 148.298,86.947C148.298,86.136 148.568,85.434 149.107,84.838C149.7,84.181 150.45,83.853 151.355,83.853" style="fill:rgb(0,87,128);fill-rule:nonzero;"/>
        </g>
        <g transform="matrix(2,0,0,2,0,0)">
            <path d="M155.794,84.004L156.547,84.004L156.547,85.015C156.81,84.643 157.078,84.37 157.356,84.197C157.735,83.968 158.136,83.853 158.557,83.853C158.84,83.853 159.109,83.909 159.364,84.02C159.619,84.131 159.827,84.279 159.989,84.464C160.15,84.649 160.291,84.913 160.409,85.257C160.66,84.798 160.973,84.45 161.349,84.211C161.725,83.972 162.129,83.853 162.563,83.853C162.967,83.853 163.323,83.955 163.633,84.16C163.942,84.364 164.173,84.65 164.323,85.015C164.474,85.381 164.548,85.93 164.548,86.662L164.548,89.858L163.778,89.858L163.778,86.662C163.778,86.034 163.734,85.603 163.645,85.368C163.556,85.133 163.402,84.943 163.187,84.8C162.97,84.657 162.712,84.585 162.411,84.585C162.047,84.585 161.713,84.692 161.411,84.908C161.108,85.123 160.888,85.41 160.748,85.769C160.609,86.128 160.54,86.727 160.54,87.566L160.54,89.858L159.786,89.858L159.786,86.861C159.786,86.154 159.742,85.675 159.654,85.421C159.566,85.169 159.413,84.966 159.194,84.814C158.976,84.661 158.716,84.585 158.414,84.585C158.066,84.585 157.74,84.69 157.438,84.9C157.135,85.109 156.91,85.392 156.765,85.748C156.619,86.102 156.547,86.646 156.547,87.378L156.547,89.858L155.794,89.858L155.794,84.004Z" style="fill:rgb(0,87,128);fill-rule:nonzero;"/>
        </g>
        <g transform="matrix(2,0,0,2,0,0)">
            <path d="M166.131,84.004L166.884,84.004L166.884,85.015C167.147,84.643 167.415,84.37 167.693,84.197C168.072,83.968 168.473,83.853 168.894,83.853C169.177,83.853 169.446,83.909 169.701,84.02C169.956,84.131 170.164,84.279 170.326,84.464C170.487,84.649 170.628,84.913 170.746,85.257C170.997,84.798 171.31,84.45 171.686,84.211C172.062,83.972 172.466,83.853 172.9,83.853C173.304,83.853 173.66,83.955 173.97,84.16C174.279,84.364 174.51,84.65 174.66,85.015C174.811,85.381 174.886,85.93 174.886,86.662L174.886,89.858L174.116,89.858L174.116,86.662C174.116,86.034 174.071,85.603 173.982,85.368C173.893,85.133 173.739,84.943 173.524,84.8C173.307,84.657 173.049,84.585 172.748,84.585C172.384,84.585 172.05,84.692 171.748,84.908C171.446,85.123 171.225,85.41 171.086,85.769C170.946,86.128 170.877,86.727 170.877,87.566L170.877,89.858L170.123,89.858L170.123,86.861C170.123,86.154 170.079,85.675 169.991,85.421C169.903,85.169 169.75,84.966 169.531,84.814C169.313,84.661 169.053,84.585 168.751,84.585C168.403,84.585 168.077,84.69 167.775,84.9C167.472,85.109 167.247,85.392 167.102,85.748C166.956,86.102 166.884,86.646 166.884,87.378L166.884,89.858L166.131,89.858L166.131,84.004Z" style="fill:rgb(0,87,128);fill-rule:nonzero;"/>
        </g>
        <g transform="matrix(2,0,0,2,0,0)">
            <path d="M176.376,84.004L177.129,84.004L177.129,86.737C177.129,87.404 177.165,87.864 177.236,88.115C177.345,88.474 177.551,88.757 177.854,88.965C178.157,89.173 178.52,89.277 178.939,89.277C179.36,89.277 179.717,89.176 180.009,88.973C180.303,88.77 180.504,88.504 180.616,88.174C180.691,87.948 180.729,87.469 180.729,86.737L180.729,84.004L181.498,84.004L181.498,86.878C181.498,87.684 181.404,88.292 181.216,88.701C181.027,89.11 180.744,89.43 180.365,89.662C179.987,89.894 179.513,90.009 178.942,90.009C178.372,90.009 177.896,89.894 177.514,89.662C177.132,89.43 176.847,89.108 176.658,88.693C176.47,88.279 176.376,87.656 176.376,86.823L176.376,84.004Z" style="fill:rgb(0,87,128);fill-rule:nonzero;"/>
        </g>
        <g transform="matrix(2,0,0,2,0,0)">
            <path d="M183.172,84.004L183.925,84.004L183.925,85.053C184.227,84.651 184.56,84.351 184.926,84.151C185.292,83.953 185.691,83.853 186.121,83.853C186.559,83.853 186.947,83.964 187.286,84.187C187.625,84.409 187.875,84.709 188.036,85.086C188.197,85.462 188.278,86.048 188.278,86.845L188.278,89.858L187.526,89.858L187.526,87.066C187.526,86.391 187.497,85.941 187.442,85.715C187.355,85.328 187.187,85.036 186.94,84.84C186.692,84.645 186.369,84.547 185.971,84.547C185.515,84.547 185.107,84.698 184.746,84.999C184.386,85.301 184.148,85.674 184.033,86.119C183.961,86.409 183.925,86.94 183.925,87.711L183.925,89.858L183.172,89.858L183.172,84.004Z" style="fill:rgb(0,87,128);fill-rule:nonzero;"/>
        </g>
        <g transform="matrix(2,0,0,2,0,0)">
            <path d="M189.779,84.004L190.533,84.004L190.533,89.858L189.779,89.858L189.779,84.004ZM190.153,81.593C190.325,81.593 190.472,81.654 190.593,81.776C190.714,81.898 190.775,82.045 190.775,82.217C190.775,82.386 190.714,82.531 190.593,82.653C190.472,82.775 190.325,82.836 190.153,82.836C189.985,82.836 189.841,82.775 189.72,82.653C189.598,82.531 189.537,82.386 189.537,82.217C189.537,82.045 189.598,81.898 189.72,81.776C189.841,81.654 189.985,81.593 190.153,81.593" style="fill:rgb(0,87,128);fill-rule:nonzero;"/>
        </g>
        <g transform="matrix(2,0,0,2,0,0)">
            <path d="M192.755,81.83L193.509,81.83L193.509,84.004L194.703,84.004L194.703,84.656L193.509,84.656L193.509,89.859L192.755,89.859L192.755,84.656L191.728,84.656L191.728,84.004L192.755,84.004L192.755,81.83Z" style="fill:rgb(0,87,128);fill-rule:nonzero;"/>
        </g>
        <g transform="matrix(2,0,0,2,0,0)">
            <path d="M195.203,84.004L196,84.004L198.012,88.512L199.966,84.004L200.767,84.004L197.275,92L196.479,92L197.606,89.415L195.203,84.004Z" style="fill:rgb(0,87,128);fill-rule:nonzero;"/>
        </g>
        <g transform="matrix(2,0,0,2,0,0)">
            <rect x="103.952" y="59.199" width="128.652" height="0.89" style="fill:rgb(0,87,128);fill-rule:nonzero;"/>
        </g>
        <g transform="matrix(2,0,0,2,0,0)">
            <path d="M103.951,45.19C103.951,44.613 103.985,44.08 104.054,43.592C104.121,43.105 104.223,42.577 104.36,42.01L107.524,42.01L107.524,43.317C107.524,44.041 107.568,44.681 107.658,45.237C107.747,45.794 107.893,46.263 108.098,46.646C108.303,47.029 108.576,47.318 108.917,47.512C109.258,47.706 109.675,47.803 110.168,47.803C110.945,47.803 111.538,47.59 111.947,47.166C112.356,46.741 112.561,46.119 112.561,45.3C112.561,44.881 112.532,44.495 112.474,44.143C112.417,43.792 112.317,43.443 112.175,43.097C112.033,42.751 111.842,42.386 111.6,42.003C111.359,41.62 111.05,41.192 110.672,40.72L106.422,35.667C105.667,34.702 105.084,33.729 104.675,32.747C104.265,31.767 104.061,30.72 104.061,29.607C104.061,28.715 104.2,27.897 104.478,27.151C104.756,26.407 105.157,25.764 105.682,25.224C106.207,24.683 106.855,24.263 107.626,23.964C108.397,23.665 109.271,23.516 110.247,23.516C111.432,23.516 112.422,23.684 113.214,24.019C114.007,24.356 114.639,24.796 115.111,25.342C115.583,25.887 115.916,26.499 116.11,27.175C116.305,27.852 116.401,28.532 116.401,29.214C116.401,29.791 116.357,30.323 116.267,30.812C116.179,31.299 116.076,31.837 115.961,32.425L112.812,32.425L112.812,31.149C112.812,29.723 112.608,28.629 112.199,27.868C111.79,27.107 111.123,26.727 110.2,26.727C109.433,26.727 108.862,26.939 108.484,27.364C108.106,27.789 107.918,28.358 107.918,29.072C107.918,29.45 107.946,29.791 108.004,30.095C108.061,30.4 108.145,30.68 108.256,30.938C108.366,31.194 108.5,31.443 108.657,31.685C108.814,31.926 108.993,32.178 109.192,32.44L113.93,38.17C114.791,39.293 115.452,40.371 115.914,41.404C116.375,42.439 116.606,43.532 116.606,44.687C116.606,45.642 116.457,46.502 116.157,47.268C115.858,48.034 115.43,48.685 114.875,49.22C114.318,49.755 113.647,50.167 112.86,50.455C112.073,50.744 111.186,50.888 110.2,50.888C108.982,50.888 107.972,50.725 107.17,50.4C106.367,50.075 105.727,49.645 105.25,49.109C104.772,48.574 104.436,47.966 104.242,47.284C104.048,46.602 103.951,45.904 103.951,45.19" style="fill:rgb(0,87,128);fill-rule:nonzero;"/>
        </g>
        <g transform="matrix(2,0,0,2,0,0)">
            <path d="M121.17,29.861L124.128,29.861L124.46,32.08L124.46,32.095C124.762,31.622 125.084,31.227 125.427,30.91C125.769,30.593 126.123,30.34 126.49,30.148C126.857,29.957 127.235,29.821 127.623,29.74C128.01,29.66 128.395,29.62 128.777,29.62C129.593,29.62 130.282,29.816 130.846,30.208C131.409,30.601 131.837,31.19 132.129,31.975C132.431,31.522 132.75,31.144 133.087,30.842C133.424,30.541 133.774,30.299 134.136,30.118C134.498,29.937 134.865,29.808 135.238,29.733C135.61,29.657 135.987,29.62 136.37,29.62C137.578,29.62 138.511,30.045 139.17,30.895C139.829,31.746 140.159,33.021 140.159,34.722L140.159,50.647L136.34,50.647L136.34,34.858C136.34,34.404 136.305,34.023 136.234,33.71C136.164,33.399 136.058,33.147 135.917,32.956C135.776,32.765 135.595,32.626 135.374,32.541C135.152,32.455 134.886,32.412 134.574,32.412C134.222,32.412 133.869,32.541 133.518,32.797C133.165,33.054 132.843,33.408 132.552,33.861C132.562,33.952 132.566,34.042 132.566,34.133L132.566,50.647L128.747,50.647L128.747,34.858C128.747,34.404 128.712,34.023 128.642,33.71C128.571,33.399 128.466,33.147 128.324,32.956C128.184,32.765 128.002,32.626 127.781,32.541C127.56,32.455 127.293,32.412 126.982,32.412C126.639,32.412 126.292,32.538 125.94,32.79C125.587,33.041 125.271,33.388 124.988,33.831L124.988,50.647L121.17,50.647L121.17,29.861Z" style="fill:rgb(0,87,128);fill-rule:nonzero;"/>
        </g>
        <g transform="matrix(2,0,0,2,0,0)">
            <path d="M150.218,47.93C150.54,47.93 150.855,47.847 151.161,47.68C151.469,47.515 151.728,47.311 151.939,47.069L151.939,40.563C151.738,40.644 151.511,40.74 151.26,40.85C151.008,40.961 150.737,41.107 150.445,41.288C150.173,41.459 149.906,41.665 149.645,41.907C149.383,42.149 149.149,42.435 148.943,42.767C148.737,43.099 148.571,43.474 148.445,43.892C148.319,44.31 148.256,44.775 148.256,45.288C148.256,46.083 148.412,46.722 148.724,47.205C149.035,47.688 149.533,47.93 150.218,47.93M148.528,50.873C147.883,50.873 147.313,50.745 146.815,50.489C146.317,50.232 145.896,49.882 145.554,49.439C145.212,48.996 144.952,48.471 144.777,47.862C144.601,47.253 144.513,46.592 144.513,45.877C144.513,45.022 144.618,44.262 144.829,43.597C145.04,42.933 145.35,42.335 145.758,41.801C146.165,41.268 146.671,40.783 147.275,40.345C147.879,39.907 148.577,39.492 149.373,39.099C149.755,38.909 150.186,38.714 150.663,38.518C151.141,38.322 151.567,38.154 151.939,38.013L151.939,35.265C151.939,34.863 151.924,34.488 151.894,34.141C151.864,33.793 151.79,33.492 151.675,33.235C151.559,32.978 151.386,32.777 151.155,32.631C150.922,32.486 150.606,32.412 150.203,32.412C149.932,32.412 149.667,32.463 149.41,32.563C149.154,32.664 148.928,32.835 148.732,33.076C148.535,33.318 148.379,33.64 148.264,34.042C148.148,34.445 148.09,34.943 148.09,35.537L148.09,36.443L145.177,36.443C145.086,36.05 145.018,35.691 144.973,35.364C144.928,35.036 144.905,34.712 144.905,34.39C144.905,33.615 145.038,32.93 145.305,32.337C145.572,31.743 145.944,31.245 146.422,30.843C146.9,30.44 147.471,30.136 148.135,29.929C148.799,29.723 149.529,29.62 150.324,29.62C151.361,29.62 152.221,29.733 152.906,29.959C153.589,30.186 154.135,30.525 154.543,30.978C154.95,31.431 155.238,32 155.404,32.684C155.57,33.368 155.653,34.168 155.653,35.084L155.653,50.647L152.815,50.647L152.543,48.866C152.13,49.46 151.579,49.943 150.89,50.315C150.2,50.687 149.413,50.873 148.528,50.873" style="fill:rgb(0,87,128);fill-rule:nonzero;"/>
        </g>
        <g transform="matrix(2,0,0,2,0,0)">
            <path d="M160.665,29.861L163.458,29.861L163.79,31.975C164.213,31.19 164.698,30.601 165.247,30.208C165.795,29.816 166.356,29.62 166.93,29.62C168.026,29.62 168.837,29.957 169.36,30.631C169.883,31.305 170.144,32.317 170.144,33.665C170.144,33.836 170.132,34.04 170.107,34.277C170.082,34.513 170.047,34.759 170.001,35.016C169.956,35.273 169.9,35.529 169.835,35.786C169.769,36.043 169.702,36.277 169.632,36.487L166.975,36.487L166.975,34.556C166.975,34.133 166.947,33.786 166.892,33.514C166.837,33.242 166.764,33.024 166.673,32.858C166.583,32.691 166.477,32.576 166.356,32.51C166.235,32.445 166.104,32.412 165.964,32.412C165.662,32.412 165.383,32.51 165.126,32.707C164.869,32.903 164.655,33.177 164.484,33.529L164.484,50.647L160.665,50.647L160.665,29.861Z" style="fill:rgb(0,87,128);fill-rule:nonzero;"/>
        </g>
        <g transform="matrix(2,0,0,2,0,0)">
            <path d="M174.543,32.578L172.929,32.578L172.929,29.861L174.876,29.861L175.646,24.472L178.362,24.472L178.362,29.861L181.684,29.861L181.684,32.578L178.362,32.578L178.362,45.801C178.362,46.254 178.405,46.619 178.491,46.895C178.576,47.172 178.694,47.389 178.846,47.544C178.996,47.701 179.172,47.804 179.374,47.854C179.575,47.904 179.786,47.93 180.008,47.93C180.38,47.93 180.71,47.884 180.996,47.794C181.283,47.703 181.558,47.577 181.819,47.416L181.819,49.529C181.598,49.801 181.358,50.022 181.102,50.194C180.846,50.365 180.581,50.503 180.31,50.609C180.038,50.714 179.761,50.787 179.48,50.828C179.197,50.868 178.921,50.888 178.649,50.888C178.115,50.888 177.603,50.817 177.109,50.677C176.616,50.536 176.179,50.266 175.796,49.869C175.414,49.472 175.109,48.921 174.883,48.216C174.656,47.512 174.543,46.596 174.543,45.469L174.543,32.578Z" style="fill:rgb(0,87,128);fill-rule:nonzero;"/>
        </g>
        <g transform="matrix(2,0,0,2,0,0)">
            <rect x="185.9" y="23.189" width="3.819" height="27.458" style="fill:rgb(0,87,128);fill-rule:nonzero;"/>
        </g>
        <g transform="matrix(2,0,0,2,0,0)">
            <path d="M197.288,27.862C196.584,27.862 196.028,27.651 195.62,27.228C195.213,26.805 195.009,26.186 195.009,25.371C195.009,24.919 195.061,24.539 195.168,24.232C195.273,23.925 195.424,23.678 195.62,23.492C195.816,23.306 196.056,23.17 196.337,23.085C196.619,22.999 196.941,22.956 197.304,22.956C198.059,22.956 198.632,23.148 199.024,23.53C199.417,23.912 199.613,24.526 199.613,25.371C199.613,26.156 199.414,26.768 199.017,27.205C198.619,27.643 198.043,27.862 197.288,27.862" style="fill:rgb(0,87,128);fill-rule:nonzero;"/>
        </g>
        <g transform="matrix(2,0,0,2,0,0)">
            <rect x="195.311" y="29.861" width="3.819" height="20.786" style="fill:rgb(0,87,128);fill-rule:nonzero;"/>
        </g>
        <g transform="matrix(2,0,0,2,0,0)">
            <path d="M204.661,29.861L207.604,29.861L207.951,32.08L207.951,32.095C208.253,31.622 208.578,31.227 208.925,30.91C209.272,30.593 209.632,30.34 210.004,30.148C210.377,29.957 210.757,29.821 211.144,29.74C211.531,29.66 211.916,29.62 212.299,29.62C213.516,29.62 214.455,30.045 215.114,30.895C215.772,31.746 216.102,33.021 216.102,34.722L216.102,50.647L212.283,50.647L212.283,34.858C212.283,33.942 212.142,33.305 211.86,32.948C211.579,32.591 211.167,32.412 210.623,32.412C210.24,32.412 209.861,32.538 209.483,32.79C209.106,33.041 208.771,33.388 208.479,33.831L208.479,50.647L204.661,50.647L204.661,29.861Z" style="fill:rgb(0,87,128);fill-rule:nonzero;"/>
        </g>
        <g transform="matrix(2,0,0,2,0,0)">
            <path d="M228.728,38.405C228.738,38.294 228.748,38.146 228.758,37.96C228.768,37.774 228.776,37.58 228.781,37.379C228.786,37.177 228.789,36.978 228.789,36.782L228.789,36.277C228.789,34.908 228.627,33.922 228.305,33.318C227.983,32.714 227.505,32.412 226.872,32.412C226.54,32.412 226.248,32.49 225.996,32.646C225.745,32.802 225.538,33.064 225.377,33.431C225.216,33.799 225.095,34.284 225.015,34.888C224.934,35.492 224.894,36.241 224.894,37.137L224.894,38.405L228.728,38.405ZM226.615,50.873C225.719,50.873 224.926,50.707 224.237,50.375C223.548,50.043 222.967,49.525 222.494,48.821C222.021,48.116 221.664,47.213 221.422,46.111C221.18,45.009 221.06,43.683 221.06,42.133L221.06,38.209C221.06,36.89 221.158,35.761 221.354,34.82C221.55,33.879 221.807,33.089 222.124,32.45C222.441,31.811 222.808,31.305 223.226,30.933C223.643,30.561 224.074,30.276 224.516,30.08C224.959,29.884 225.4,29.758 225.837,29.703C226.275,29.648 226.68,29.62 227.053,29.62C227.737,29.62 228.396,29.723 229.03,29.929C229.665,30.135 230.222,30.488 230.706,30.986C231.188,31.484 231.574,32.151 231.861,32.986C232.147,33.822 232.291,34.863 232.291,36.111C232.291,36.533 232.278,36.961 232.252,37.394C232.228,37.826 232.195,38.252 232.155,38.669C232.115,39.087 232.061,39.491 231.996,39.884C231.93,40.277 231.863,40.639 231.792,40.971L224.894,40.971L224.894,43.084C224.894,43.99 224.929,44.752 224.999,45.371C225.07,45.99 225.188,46.488 225.354,46.865C225.52,47.243 225.747,47.515 226.034,47.68C226.321,47.847 226.68,47.93 227.113,47.93C227.344,47.93 227.571,47.882 227.792,47.786C228.013,47.691 228.207,47.532 228.374,47.311C228.54,47.09 228.672,46.795 228.773,46.427C228.874,46.061 228.924,45.605 228.924,45.062L228.924,44.413L232.109,44.413L232.109,45.213C232.109,47.185 231.639,48.622 230.698,49.522C229.756,50.423 228.396,50.873 226.615,50.873" style="fill:rgb(0,87,128);fill-rule:nonzero;"/>
        </g>
    </g>
</svg>
